<?xml version="1.0" standalone="no"?>
<!DOCTYPE svg PUBLIC "-//W3C//DTD SVG 20010904//EN"
 "http://www.w3.org/TR/2001/REC-SVG-20010904/DTD/svg10.dtd">
<svg version="1.0" xmlns="http://www.w3.org/2000/svg"
 width="256.000000pt" height="256.000000pt" viewBox="0 0 256.000000 256.000000"
 preserveAspectRatio="xMidYMid meet">

<rect x="38" height="180" y="38" width="180" style="fill: #FFFFFF;"/>

<g transform="translate(0.000000,256.000000) scale(0.100000,-0.100000)"
stroke="#000000" stroke-width="100"
fill="#FF0000">
<path d="M429 2387 c-116 -48 -176 -103 -227 -207 l-27 -55 0 -845 0 -845 28
-56 c43 -88 98 -143 185 -186 l76 -38 816 0 816 0 76 38 c87 43 142 98 185
186 l28 56 0 845 0 845 -28 56 c-43 88 -98 143 -185 186 l-76 38 -805 2 -806
3 -56 -23z m468 -618 c15 -6 108 -90 205 -187 l178 -176 183 181 c200 199 219
210 295 181 55 -21 85 -71 79 -132 -4 -47 -7 -51 -188 -232 l-184 -184 182
-182 c99 -101 186 -193 192 -205 16 -31 14 -89 -4 -123 -20 -39 -63 -60 -121
-60 l-48 0 -193 192 -193 192 -193 -192 -193 -192 -48 0 c-58 0 -101 21 -121
60 -18 34 -20 92 -4 123 6 12 93 104 192 205 l182 182 -184 184 c-182 182
-184 184 -188 232 -9 101 81 169 174 133z"/>
</g>
</svg>
